<?xml version="1.0" encoding="UTF-8" standalone="no"?>
<svg
   xmlns:dc="http://purl.org/dc/elements/1.1/"
   xmlns:cc="http://creativecommons.org/ns#"
   xmlns:rdf="http://www.w3.org/1999/02/22-rdf-syntax-ns#"
   xmlns:svg="http://www.w3.org/2000/svg"
   xmlns="http://www.w3.org/2000/svg"
   xmlns:sodipodi="http://sodipodi.sourceforge.net/DTD/sodipodi-0.dtd"
   xmlns:inkscape="http://www.inkscape.org/namespaces/inkscape"
   width="100"
   height="100"
   version="1.1"
   id="svg6"
   sodipodi:docname="test.svg"
   inkscape:version="0.92.3 (2405546, 2018-03-11)">
  <metadata
     id="metadata12">
    <rdf:RDF>
      <cc:Work
         rdf:about="">
        <dc:format>image/svg+xml</dc:format>
        <dc:type
           rdf:resource="http://purl.org/dc/dcmitype/StillImage" />
        <dc:title></dc:title>
      </cc:Work>
    </rdf:RDF>
  </metadata>
  <defs
     id="defs10" />
  <sodipodi:namedview
     pagecolor="#ffffff"
     bordercolor="#666666"
     borderopacity="1"
     objecttolerance="10"
     gridtolerance="10"
     guidetolerance="10"
     inkscape:pageopacity="0"
     inkscape:pageshadow="2"
     inkscape:window-width="701"
     inkscape:window-height="480"
     id="namedview8"
     showgrid="false"
     inkscape:zoom="2.36"
     inkscape:cx="50"
     inkscape:cy="50"
     inkscape:window-x="0"
     inkscape:window-y="24"
     inkscape:window-maximized="0"
     inkscape:current-layer="svg6" />
  <rect
     x="46.574"
     y="15.865"
     width="5.669"
     height="35.33"
     id="rect2" />
  <path
     d="M49.408,83.895c-17.974,0-32.596-14.623-32.596-32.598c0-10.55,5.159-20.498,13.801-26.61l3.273,4.629 c-7.142,5.051-11.406,13.269-11.406,21.981c0,14.849,12.08,26.928,26.927,26.928c14.847,0,26.926-12.079,26.926-26.928 c0-8.712-4.263-16.929-11.404-21.98l3.273-4.629c8.642,6.113,13.801,16.06,13.801,26.609C82.004,69.271,67.382,83.895,49.408,83.895 z"
     id="path4" />
</svg>
